<?xml version="1.0" encoding="UTF-8"?>
<svg id="Layer_1" data-name="Layer 1" xmlns="http://www.w3.org/2000/svg" viewBox="0 0 543.71 259.19">
  <defs>
    <style>
      .cls-1 {
        fill: #fab927;
      }

      .cls-1, .cls-2, .cls-3, .cls-4, .cls-5, .cls-6, .cls-7 {
        stroke-width: 0px;
      }

      .cls-2 {
        fill: #ef5140;
      }

      .cls-3 {
        fill: #33b063;
      }

      .cls-4 {
        fill: #4e7cbe;
      }

      .cls-5 {
        fill: #293130;
      }

      .cls-6 {
        fill: #f5a941;
      }

      .cls-7 {
        fill: #6284b5;
      }
    </style>
  </defs>
  <path class="cls-5" d="M0,132.5v1.53c0,72.45,46.61,129.8,101.55,124.87,94.45-8.47,236.02-17.62,341.15-8.84,54.75,4.57,101.01-52.74,101.01-124.91h0c0-74.2-48.77-132.02-104.88-124.49-88.79,11.91-219.54,23-334.18,7.33C48.64.33,0,58.43,0,132.5Z"/>
  <g>
    <path class="cls-6" d="M159.14,91.71l1.79-.6c2.66-.86,5.18-2.49,7.57-4.88.26-.53,1.23-.86,2.89-1,.93-1,1.69-1.59,2.29-1.79s1.61-.71,3.04-1.54c1.43-.83,3.43-1.57,6.03-2.24l2.09-1c.53-.4,1.63-.66,3.29-.8l2.79-.8c2.45-.46,4.98-.7,7.57-.7.2,0,1.17.22,2.94.65,1.76.43,2.84.88,3.23,1.34.4.46,1.38,1.21,2.94,2.24,1.56,1.03,2.34,3.63,2.34,7.81,0,2.19-.33,4.31-1,6.37-.27,0-.83.37-1.69,1.1-.86.73-1.41,1.74-1.64,3.04s-.63,2.08-1.19,2.34c-.57.26-1.08,1.1-1.54,2.49-.46,1.39-1.66,3.75-3.58,7.07l-5.48,9.45-.2.8c-.33,1.59-1.29,3.75-2.89,6.47l-1,2.09-.4.2c-.6,2.12-1.13,3.35-1.59,3.68l-.7,1c-.46,2.39-1.06,3.95-1.79,4.68-.27.13-.46.7-.6,1.69l-1.19,2.59c-.47.53-.73,1.08-.8,1.64-.07.56-.23.95-.5,1.15s-.56.81-.9,1.84-.73,1.98-1.19,2.83c-.46.86-.7,1.36-.7,1.5l.4,1.49v.79c0,.13-.07.53-.2,1.2-.13.13-.35.26-.65.4-.3.13-.55.38-.75.74s-.5.68-.9.95l.2,1.79-.2,1.59v.5l2.29-.7c.13-.46,1.82-1.82,5.08-4.08.6-.59,1.06-1.53,1.39-2.78,1.39-.86,2.42-1.63,3.08-2.29s1.44-1.23,2.34-1.69c.9-.46,1.53-1.13,1.89-1.99s2.01-2.75,4.92-5.67l1-1.59c0-.73.96-1.76,2.89-3.09l1-1.59c.13-.33.76-.7,1.89-1.1.4-1.19,1.21-2.4,2.44-3.63s2.35-2.72,3.38-4.48c1.03-1.76,2.27-2.7,3.73-2.84l1-1.89c-.13-.8.35-1.84,1.44-3.14,1.1-1.29,1.98-2.45,2.64-3.48.66-1.03,1.49-1.94,2.49-2.74l.6-1.39c.26-1.26.98-2.19,2.14-2.79,1.16-.6,1.74-.96,1.74-1.1l-.4-1.19c0-.13.23-.65.7-1.54s.86-1.89,1.19-2.99c.33-1.1.83-1.77,1.49-2.04,1.33-1.99,2.24-3.12,2.74-3.38.5-.26,1.24-.7,2.24-1.29v-1.39l.8-2.69-.2-1.39c0-.6.53-1.03,1.6-1.29.2,0,.56-.56,1.1-1.69.53-1.13,1-1.99,1.39-2.59l.2-1.19c1.07-1.46,2.23-2.35,3.49-2.69l1.8-1.39c.66-.53,1.33-.8,1.99-.8.46,0,1,.13,1.59.4.6.26,1.81.46,3.63.6,1.82.13,2.74,2.19,2.74,6.17,0,1.19-.3,2.3-.9,3.33-.6,1.03-.93,1.88-1,2.54-.07.66-.93,2.22-2.59,4.68l-.4,2.09-3.48,6.87v1l.2,1.29c0,.53-.66.93-1.99,1.19l-1.19.6c.13.26.2.46.2.6l-1.89,7.56c0,.4-.53,1.1-1.59,2.09-.13,0-.23.53-.3,1.59-.07,1.06-.27,1.94-.6,2.64-.33.7-.55,1.38-.65,2.04s-.38,1.41-.85,2.24-.7,1.58-.7,2.24v.8c-.53.53-.8,1.1-.8,1.69v.6l.2,1c0,.27-.3.5-.9.7-.6.2-.9.43-.9.7s.2.76.6,1.49v1c0,.4-.25,1.05-.75,1.94-.5.9-.75,1.81-.75,2.74l-.8,3.28.2,1.99-.4,2.69.8,4.08-.2,3.09c0,.66.31,1.19.95,1.59.63.4,1.08.8,1.34,1.19.26.4.66.6,1.19.6,2.45,0,4.68-.99,6.67-2.98,4.92-5.11,7.44-7.7,7.58-7.76l1.3-.8c.47-2.06.78-3.13.95-3.23.16-.1.5-.31,1-.65.5-.33,1.02-1.16,1.55-2.49l.8-1.19,1-2.49c1.66-.33,2.66-1.39,2.99-3.19.33-1.79.63-2.82.9-3.09l2-.2.7-1.19-.7-.7c1-.93,1.5-1.66,1.5-2.19,0-.4.33-1.16,1-2.29l.8-1.79c0-.93.42-1.91,1.25-2.94s1.38-1.94,1.65-2.74v-.9c1.87-1.86,2.81-3.75,2.81-5.67.2-.53.77-1.71,1.7-3.53.94-1.83,1.4-3.37,1.4-4.63l-.2-1.39c0-1.26.9-2.75,2.71-4.48l-.4-2.29c0-.53.43-1.18,1.3-1.94.86-.76,1.3-1.34,1.3-1.74,0-.26-.13-.73-.4-1.39v-.6c0-1.13.33-2.49,1-4.08,1.13-.26,1.69-.6,1.69-1,0-.6-.38-1.13-1.14-1.59-.76-.46-1.14-.83-1.14-1.1,0-.13.26-.6.8-1.39l-.2-2.89c0-.4.36-.93,1.1-1.59-.27-.46-.43-.86-.5-1.19-.07-.33-.35-1.04-.85-2.14s-.75-1.97-.75-2.64l.6-3.28-.2-4.68c0-2.79,1.29-4.81,3.88-6.07l1.69-1c.8-.86,2.49-1.29,5.08-1.29s4.08,1.16,4.68,3.48l.8,1.19c.8,1.26,1.19,2.85,1.19,4.78l-.8,5.48.6,3.88c0,.26-.27.73-.8,1.39l-.6,1c.4,2.06.6,3.42.6,4.08,0,1.26-.23,2.13-.7,2.59s-.76.96-.9,1.49l-.6,1.89c-.66.6-1.03,1.06-1.1,1.39-.07.33-.2,2.29-.4,5.87,0,.6-.4,1.13-1.19,1.59-.8.47-1.19.9-1.19,1.29,0,.13.06.53.2,1.19v.9c0,2.52-.9,4.41-2.69,5.67-1.59,5.51-3.1,9.12-4.53,10.85-1.43,1.73-2.44,3.55-3.04,5.47-.26.27-.86.67-1.79,1.19-.13.4-.46,1.43-1,3.09-.53,1.66-1.53,3.77-2.99,6.32-1.46,2.55-2.39,3.96-2.79,4.23l-1,2.09c-.13.8-.4,1.19-.8,1.19-.8,0-1.56.33-2.29,1v1.89c0,.27-.3.7-.9,1.29-.6.59-1.41,2.06-2.44,4.38-1.03,2.32-2.21,3.88-3.54,4.68-1.46.2-2.22.31-2.29.35-.07.03-.18.38-.35,1.04-.16.66-.28,1.25-.35,1.74-.07.5-.43,1.08-1.1,1.75-.13-.13-.33-.2-.6-.2-.6,0-.9.26-.9.79v.5l.2.8c0,.93-1.43,2.48-4.29,4.68-1.73.79-2.92,1.73-3.59,2.78-.66,1.06-2.64,2.45-5.92,4.18-3.29,1.73-5.73,2.59-7.32,2.59l-1.89.19-3.19-.79c-2.32-.53-3.95-1.26-4.88-2.19s-1.61-1.78-2.04-2.53c-.43-.77-1.2-1.63-2.29-2.59-1.1-.96-1.64-2.8-1.64-5.52,0-.4-.63-1.82-1.89-4.28.26-2.58.4-4.41.4-5.47v-1.69c0-.8.35-2.01,1.04-3.63.7-1.63,1.05-2.57,1.05-2.84v-.6l-.2-1.69c0-.4.3-1.37.9-2.94.6-1.56.9-2.6.9-3.13s-.27-.8-.8-.8c-.67,0-1.03.63-1.1,1.89-.07,1.26-1.4,2.92-3.99,4.98l-3.09,4.68c-.13.4-.4.83-.8,1.29l-1.39,3.19c-.13.26-.43.4-.9.4-.13,0-.27-.07-.4-.2l-1-.2c-.27.13-.45.78-.55,1.94s-.45,2.01-1.05,2.53l-1.9-.59-.2.59v1.7c0,.39-.66,1.13-1.99,2.19-.67,0-1.23.36-1.69,1.09-.13,0-.2.06-.2.2l-1.6-.2-.2.4.2,1.19c0,.66-.73,1.81-2.19,3.43-1.46,1.63-2.29,2.44-2.49,2.44-.53,0-.93-.06-1.2-.2l-.2.2.2,1.7c-.6.79-1.36,1.26-2.29,1.39-.26.26-.53.6-.8.99l-3.69,3.49c-.67,0-1.43.06-2.29.19-.2-.13-.53-.26-1-.39-.07.13-.18.64-.35,1.54-.17.89-.92,1.34-2.24,1.34l-.7.6c.4.66-1.02,2.29-4.24,4.87-3.22,2.59-5.79,3.88-7.72,3.88-1.26,0-2.36-.44-3.29-1.34-.93-.89-1.71-1.58-2.34-2.04s-1.18-1.14-1.64-2.04c-.46-.89-1.14-2.06-2.04-3.48s-1.34-2.94-1.34-4.53c0-.13.2-1.04.6-2.73s.73-3.29,1-4.78c.26-1.49.58-2.35.95-2.59.36-.23.78-.86,1.24-1.89.46-1.03.7-1.58.7-1.64l-.2-1.49c-.13-.13-.2-.33-.2-.6,0-.4.35-1.11,1.05-2.14.7-1.03,1.18-2.22,1.44-3.58.26-1.36.53-2.21.8-2.54.26-.33.56-.91.9-1.74.33-.83.78-1.51,1.34-2.04.56-.53,2.94-5.21,7.12-14.03,1.13-3.25,2.22-5.26,3.28-6.02,1.06-.76,1.66-1.34,1.79-1.74-.66-1.06-1-1.66-1-1.79l1.79-2.89c0-.8.31-1.51.95-2.14.63-.63,1.01-1.14,1.14-1.54l.8-.4c.46-1.73.93-2.89,1.39-3.48,0-.4.08-.66.25-.8.16-.13.85-1.23,2.04-3.28v-1.59l.6-1.19,1.39-.9c1.26-3.12,2.09-4.88,2.49-5.27l.6-1c.4-.53.8-.93,1.19-1.19,1.66-4.44,2.49-6.77,2.49-6.97,0-.4-.46-.8-1.39-1.19l-.8-.6c-1,.4-1.63.6-1.89.6l-2.19-.6c-1.13.53-2.22,1.33-3.28,2.39-2.19,1.13-4.45,1.69-6.77,1.69-1.06,0-2.32.55-3.78,1.64-1.46,1.1-3.92,2.37-7.37,3.83l-1.49.8c-.6,1.19-1.2,1.79-1.79,1.79l-3.49-.4c-.53,2.92-2.09,4.64-4.68,5.18-1.66,1.59-2.99,2.94-3.98,4.03-1,1.1-2.14,2.09-3.44,2.99-1.29.9-2.08,2.01-2.34,3.33-.33.27-.9,1.29-1.69,3.09-.8,1.79-1.88,3.02-3.24,3.68-1.36.66-2.59,1.39-3.69,2.19-1.1.8-1.84,1.19-2.24,1.19-.66,0-1.34-.3-2.04-.9-.7-.6-1.73-1.1-3.09-1.49-1.36-.4-2.04-1.36-2.04-2.89,0-1.06,1.23-3.29,3.68-6.67,0-.13,2.08-1.74,6.23-4.83,4.15-3.09,6.61-4.96,7.37-5.62.76-.66,2.29-1.51,4.58-2.54,2.29-1.03,3.62-1.71,3.98-2.04.36-.33,1.05-.85,2.04-1.54,1-.7,1.73-1.26,2.19-1.69.46-.43,1-.75,1.59-.95Z"/>
    <path class="cls-6" d="M278.04,151.02l1.6-1.39h.6c.46,0,1.16-.5,2.09-1.49l1-.4c1.33-1.99,2.49-3.15,3.48-3.48l1.6-1.2c.26-.26.65-.49,1.14-.69.5-.2,1.29-.85,2.39-1.94,1.09-1.1,1.97-1.64,2.64-1.64s1.2.06,1.59.2c.4-.8,1.19-1.57,2.39-2.34,1.2-.76,2.16-1.68,2.89-2.74l1.3-.6c1.06-.53,2.01-1.21,2.84-2.04.83-.83,1.91-1.24,3.24-1.24,1.93,0,3.93.98,6.02,2.94,2.09,1.96,3.14,3.83,3.14,5.62l-1.69,7.76c-1.13,5.71-2.39,8.69-3.78,8.95l-.4,2.09c-.93.66-1.39,1.19-1.39,1.59l.6,2.39c0,.33-.37.83-1.1,1.5-.13,0-.2.2-.2.59v4.08c0,.73-.47,1.33-1.39,1.79.13.13.33.27.6.4.4-.4,1.29-.6,2.69-.6l1.59.2,2.19-2.19c.46-.13,1.11-.45,1.94-.95s2.24-1.15,4.23-1.94l13.02-9.95c1.79-1.79,3.15-2.69,4.07-2.69.99,0,1.49.63,1.49,1.89,0,1.46-.28,2.67-.85,3.63-.56.96-1.08,2.13-1.54,3.48-.46,1.36-1.01,2.31-1.64,2.84-.63.53-1.14,1.11-1.54,1.74-.4.63-1.48,1.55-3.23,2.74-1.76,1.19-3.25,2.4-4.48,3.63-1.23,1.23-2.24,2.11-3.03,2.64l-4.28,3.08-.6,1c-.13.13-.75.41-1.84.84-1.1.43-2.07.98-2.94,1.64l-1.79,1c-.4.26-1.05.43-1.94.5s-1.68.44-2.34,1.14-1.19,1.05-1.59,1.05l-1.49-.2-1.99.59c-1.13,0-2.51-.68-4.13-2.04-1.63-1.36-2.44-2.8-2.44-4.33v-.6l.2-1.39c0-.26-.2-.95-.6-2.04-.4-1.1-.6-1.71-.6-1.84l.2-1.4-.2-.59c0-1.8.13-2.92.4-3.38.26-.47.46-1.12.6-1.95.13-.83.26-1.51.4-2.04l.5-2.49c.26-.79.6-1.33,1-1.59.13-.53.4-1.43.8-2.68l.4-1.8,1-1.39c.53-.53.85-1.24.95-2.14.1-.89.45-1.84,1.05-2.83.6-1,.9-1.6.9-1.79,0-.8-.4-1.2-1.19-1.2-.27,0-1.1.53-2.49,1.59l-1.79-.59c-.13,0-.5.33-1.1.99,0,.26-.3.46-.9.6-.6.13-1.16.63-1.69,1.49l-.8.2-1.29-.6h-.4c-.66,0-1.06.73-1.19,2.19-.73,1.06-1.69,1.76-2.89,2.09l-2.19.6c-.73.26-1.26.86-1.59,1.79-.33.93-1,1.78-1.99,2.54s-1.66,1.14-1.99,1.14c-1.86,0-2.79-1.03-2.79-3.08l.8-4.68-.2-.6ZM321.03,101.26l-.6-3.88v-.6c0-3.12,1.06-4.84,3.19-5.18.46-.06,1.86-.5,4.18-1.29,1.19.26,2.44,1.31,3.73,3.14s1.94,3.43,1.94,4.83c0,.13-.1.43-.3.9-.2.46-.33,1.34-.4,2.64-.07,1.29-.71,2.42-1.94,3.38-1.23.96-2.54,1.44-3.93,1.44-.93,0-2.11-.65-3.53-1.94-1.43-1.29-2.21-2.44-2.34-3.43Z"/>
    <path class="cls-6" d="M336.06,156.3v-.4l.6-.6c0-.4.38-1.04,1.14-1.94.76-.89,1.24-1.61,1.44-2.14.2-.53.53-.93.99-1.19s.88-.75,1.24-1.44c.36-.7,1.14-1.38,2.34-2.04l10.13-12.84c1.13-1.39,1.95-2.35,2.49-2.89,2.18-2.72,3.94-5.97,5.26-9.75.26-.4.66-.8,1.19-1.19,1.66-3.25,3.19-6.93,4.59-11.05l1-1.59c.07-.2.63-1.28,1.7-3.24,1.06-1.96,1.84-3.2,2.34-3.73.5-.53.98-1.76,1.45-3.68l2.19-4.38c.6-1.33,1.49-3.45,2.69-6.37,1.66-.6,2.49-.96,2.49-1.1,0-.26-.1-.56-.3-.9-.2-.33-.36-.63-.5-.9.26-.93.8-1.69,1.59-2.29l.4-.4c0-.26.26-.8.8-1.59l.2-.6c1.19-2.65,2.74-4.88,4.63-6.67,1.89-1.79,3.7-2.69,5.43-2.69,1.59,0,2.49.6,2.69,1.79.2,1.19.51,2.17.95,2.94s.65,1.54.65,2.34v2.49l-.6,8.56c0,.13.06.4.2.8-.6.53-.96,1.23-1.1,2.09l-4.08,10.95c-.33.07-1.03,1.1-2.09,3.09l-1.49,2.89c-1.59,3.05-2.82,4.81-3.68,5.28l-.6.8c-.73,1.06-1.36,1.59-1.89,1.59,0,1.66-.58,3.04-1.74,4.13-1.16,1.1-2.04,2.32-2.64,3.68-.6,1.36-1.73,2.44-3.38,3.24-.53,1.06-1.19,2.22-1.99,3.48l-4.48,6.07c-1.19,1.66-2.11,3.67-2.74,6.02-.63,2.36-1.28,4.03-1.94,5.03l-.4.99c-1.53.93-2.29,1.5-2.29,1.7,0,.33-.13,1.39-.4,3.18-.53,1.39-.86,2.16-1,2.29l.2,2.19-1.29.2c-.13.13-.33.69-.6,1.69v1.99l.2.2c.26,0,.56-.46.9-1.4.93-.66,2.12-1.36,3.58-2.09l.7-.39c.53-1.6,1.06-2.59,1.59-2.99l1.99-2.69,2.89-2.48c2.72-2.65,4.08-4.08,4.08-4.28,0-.13.06-.26.2-.4l1.39.2.7-.4-.3-1.79c.06-.07.56-.46,1.49-1.19l3.09-3.09,1.59-1.19c.53-.46,1.21-1.06,2.04-1.79.83-.73,1.51-1.1,2.04-1.1l1.19.4c.8-1.99,2.56-3.58,5.28-4.78,2.72-1.19,4.31-1.79,4.78-1.79l5.68,1.29c.53.53,1.68,1.31,3.43,2.34,1.76,1.03,2.64,3.57,2.64,7.61,0,.4-.4,1.43-1.2,3.09l.2,1.79c0,.4-.53,1.1-1.59,2.09l-.6,1.99-5.77,5.27c-.67.47-1.34.8-2.04,1-.7.2-1.41.6-2.14,1.19-.73.6-2.35,1.51-4.88,2.74-2.52,1.23-3.78,2.24-3.78,3.03,0,.27.45,1.01,1.34,2.24.9,1.23,1.54,2.27,1.94,3.13.4.86,1.15,1.86,2.24,2.98,1.1,1.13,2.04,1.76,2.84,1.89.8.13,1.63.33,2.49.6.06-.13.66-.41,1.79-.84,1.13-.43,1.96-.91,2.49-1.45l1.39-.39c.93-.13,1.58-.53,1.94-1.2s1.31-1.44,2.84-2.34c1.53-.89,2.74-1.92,3.64-3.08.89-1.16,1.71-1.74,2.43-1.74h1.2c.93,0,1.46-.66,1.59-1.99,1.79-.8,3.09-1.65,3.88-2.54.8-.9,1.7-1.61,2.69-2.14l.6-.4c1.79-1.92,3.28-2.88,4.48-2.88.66,0,1.13.33,1.39.99-.53,2.19-.79,3.72-.79,4.58,0,.59-.38,1.79-1.15,3.58s-1.18,2.69-1.24,2.69l-1.1-.4h-.2c-.39,0-.79.23-1.19.69-.4.47-.8.76-1.19.9-.4.13-.81.53-1.25,1.19-.43.67-1.11,1.18-2.04,1.55s-1.68.88-2.24,1.54c-.56.66-.98,1.09-1.24,1.29s-.53.45-.79.75c-.27.3-.57.55-.9.75-.33.2-.75.59-1.24,1.19-.5.6-1.15,1.09-1.94,1.49-.8.4-1.41,1.01-1.84,1.84-.43.83-1,1.41-1.7,1.74-.69.33-1.68.9-2.93,1.7l-2.69,1.89c-.66.39-1.06.59-1.19.59h-.3l-1-.2c-.26,0-.4.2-.4.6-.8,1.13-1.53,1.69-2.19,1.69-.73,0-1.64.23-2.74.7s-1.91.7-2.44.7c-.93,0-2.69-.33-5.27-1-.53-.6-1.13-1.03-1.79-1.29-.67-.26-1.49-1.5-2.49-3.68l-1.39-1.2c-1.13-.79-2.95-4.18-5.48-10.15l-.9-1.2c-2.13-.46-3.19-1.5-3.19-3.08,0-.33.4-1.3,1.19-2.89l1-.6c.4-.8.88-1.26,1.44-1.39.56-.13,1.04-.61,1.44-1.45.4-.83,1-1.24,1.79-1.24h.4c.93-.93,1.84-1.64,2.74-2.14s1.63-1.01,2.19-1.54c.56-.53,2.02-1.19,4.38-1.99,2.35-.8,3.53-3.32,3.53-7.56,0-.4-.33-.66-1-.8-1.93.66-3.35,1.52-4.28,2.59-1.33.13-2.35.81-3.09,2.04-.73,1.23-1.39,1.84-1.99,1.84l-1.89-.2c-.4,0-.8.55-1.19,1.64-.4,1.1-.93,1.64-1.59,1.64h-.8l-1.29.6-.4,1.59c-1.53,1.66-2.75,2.49-3.68,2.49l-.8,2.29c-1.06.4-2.29,1.39-3.68,2.98l-.6.4c-.53.6-.93,1.1-1.19,1.49-.27.4-.66.6-1.19.6-.86.53-1.63,1.63-2.29,3.28-.8,0-1.33.61-1.59,1.84-.27,1.23-.83,1.84-1.69,1.84h-.8c-.66,1.53-1.23,2.47-1.69,2.83-.46.37-1,.91-1.59,1.65-.6.73-1.06,1.46-1.39,2.19-.33.73-1,1.5-1.99,2.29-1,.8-1.76,1.46-2.29,1.99l-1.59,1c-.86.59-1.43,1.03-1.69,1.29-.27.26-.6.4-1,.4-.66,0-1.61-.51-2.84-1.54-1.23-1.03-1.84-1.81-1.84-2.34,0-3.85.33-6.57,1-8.16l2.69-6.97c.8-2.12,1.74-3.98,2.84-5.57s1.64-2.72,1.64-3.38c0-.93-.33-1.39-1-1.39-2.32,2.32-3.85,3.68-4.58,4.08-3.78-.46-5.67-1.22-5.67-2.28Z"/>
    <path class="cls-6" d="M427.23,151.02l1.6-1.39h.59c.46,0,1.16-.5,2.1-1.49l1-.4c1.33-1.99,2.49-3.15,3.48-3.48l1.6-1.2c.26-.26.65-.49,1.15-.69.49-.2,1.29-.85,2.39-1.94,1.09-1.1,1.98-1.64,2.64-1.64s1.2.06,1.6.2c.4-.8,1.19-1.57,2.39-2.34s2.16-1.68,2.89-2.74l1.3-.6c1.06-.53,2.01-1.21,2.84-2.04.83-.83,1.91-1.24,3.24-1.24,1.93,0,3.94.98,6.03,2.94,2.09,1.96,3.13,3.83,3.13,5.62l-1.69,7.76c-1.13,5.71-2.39,8.69-3.78,8.95l-.4,2.09c-.93.66-1.39,1.19-1.39,1.59l.6,2.39c0,.33-.37.83-1.1,1.5-.13,0-.2.2-.2.59v4.08c0,.73-.46,1.33-1.39,1.79.13.13.33.27.6.4.39-.4,1.29-.6,2.68-.6l1.59.2,2.19-2.19c.46-.13,1.11-.45,1.94-.95s2.23-1.15,4.23-1.94l13.02-9.95c1.79-1.79,3.14-2.69,4.07-2.69.99,0,1.49.63,1.49,1.89,0,1.46-.28,2.67-.84,3.63-.56.96-1.08,2.13-1.55,3.48-.46,1.36-1.01,2.31-1.64,2.84-.63.53-1.14,1.11-1.54,1.74-.39.63-1.48,1.55-3.23,2.74-1.76,1.19-3.25,2.4-4.48,3.63-1.23,1.23-2.23,2.11-3.03,2.64l-4.28,3.08-.6,1c-.13.13-.75.41-1.84.84-1.1.43-2.08.98-2.94,1.64l-1.79,1c-.4.26-1.05.43-1.94.5-.9.06-1.68.44-2.34,1.14s-1.2,1.05-1.59,1.05l-1.5-.2-1.99.59c-1.13,0-2.51-.68-4.13-2.04-1.63-1.36-2.44-2.8-2.44-4.33v-.6l.2-1.39c0-.26-.2-.95-.6-2.04-.4-1.1-.59-1.71-.59-1.84l.19-1.4-.19-.59c0-1.8.13-2.92.39-3.38.26-.47.46-1.12.6-1.95.13-.83.26-1.51.4-2.04l.5-2.49c.26-.79.59-1.33.99-1.59.13-.53.4-1.43.8-2.68l.39-1.8,1-1.39c.53-.53.84-1.24.94-2.14.1-.89.45-1.84,1.05-2.83.6-1,.89-1.6.89-1.79,0-.8-.39-1.2-1.19-1.2-.26,0-1.09.53-2.49,1.59l-1.79-.59c-.13,0-.5.33-1.1.99,0,.26-.29.46-.89.6s-1.16.63-1.69,1.49l-.8.2-1.29-.6h-.4c-.66,0-1.06.73-1.2,2.19-.73,1.06-1.69,1.76-2.88,2.09l-2.19.6c-.73.26-1.26.86-1.6,1.79-.33.93-.99,1.78-1.99,2.54-.99.76-1.66,1.14-1.99,1.14-1.86,0-2.79-1.03-2.79-3.08l.8-4.68-.2-.6ZM470.22,101.26l-.6-3.88v-.6c0-3.12,1.06-4.84,3.19-5.18.46-.06,1.86-.5,4.18-1.29,1.19.26,2.43,1.31,3.73,3.14,1.29,1.83,1.94,3.43,1.94,4.83,0,.13-.1.43-.3.9s-.33,1.34-.4,2.64-.71,2.42-1.94,3.38c-1.23.96-2.54,1.44-3.93,1.44-.93,0-2.11-.65-3.53-1.94-1.43-1.29-2.21-2.44-2.34-3.43Z"/>
  </g>
  <g>
    <path class="cls-3" d="M80.03,67.78c10.04,0,20.08,0,30.12,0,.31,0,.62,0,.93.04.57.06,1.03.5,1.07,1.06.06.82-.09,1.61-.29,2.42-.28,1.12-.78,2.16-.95,3.31-.15,1.03-.59,1.99-.92,2.97-.16.48-.27.97-.37,1.47-.29,1.4-.79,2.73-1.24,4.08-.2.6-.16,1.26-.44,1.85-.64,1.31-1.46,2.39-2.98,2.8-.46.12-.9.22-1.37.22-15.57,0-31.13,0-46.7.01-.94,0-1.87-.14-2.6-.67-.94-.69-1.84-1.47-2.06-2.78-.15-.88-.47-1.75-.81-2.58-.26-.63-.23-1.31-.49-1.94-.65-1.56-.86-3.26-1.44-4.84-.46-1.25-.71-2.55-1.1-3.81-.2-.65-.49-1.28-.51-1.98-.02-.94.55-1.6,1.48-1.61,1.61-.03,3.23-.02,4.84-.02,8.61,0,17.22,0,25.83,0h0Z"/>
    <path class="cls-4" d="M52.88,173.2c0-.15.03-.27.22-.25.31-.07.67-.54.87.17.05.18.23-.02.28-.19.21-.63.49-1.2,1.22-1.36.14-.03.13-.19.14-.31.43-.02.87-.07,1.3-.07,15.5,0,30.99.03,46.49-.03,2.45,0,3.97,1.47,4.66,3.26.31.79.38,1.69.69,2.5.55,1.43.84,2.93,1.3,4.39.35,1.11.74,2.22.97,3.38.19.96.6,1.87.87,2.81.19.66.38,1.33.47,2.01.14,1.11-.52,1.89-1.77,1.89-12.39-.03-24.79-.02-37.18-.02-7.84,0-15.68,0-23.53-.01-.29,0-.66.18-.88-.2.08-.67-.36-.82-.88-.91-.4-.25-.24-.65-.14-.93.31-.85.54-1.71.76-2.59.26-1.06.65-2.09.96-3.14.16-.52.3-1.05.39-1.59.05-.31.11-.59.29-.84.8-.76.87-1.72.78-2.73.01-.08.03-.16.04-.24.47-.14.44-.63.51-.93.17-.78.65-1.47.7-2.26.04-.64.56-1.14.45-1.81Z"/>
    <path class="cls-1" d="M80.27,116.89c6.67,0,13.33,0,20,0,.79,0,1.54.02,2.28.5.81.52,1.14,1.25,1.24,2.09.1.78.03,1.57.03,2.36,0,5.72-.01,11.45,0,17.17,0,1.5-.69,2.49-1.96,3.13-.3.15-.65.09-.98.09-3.02,0-6.04,0-9.07,0-10.78,0-21.57-.02-32.35.02-1.4,0-2.44-.99-2.92-1.97-.14-.3-.1-.69-.1-1.04,0-6.45.04-12.9-.03-19.35-.02-1.53,1.49-3.03,3.04-3.02,6.93.07,13.87.03,20.8.03,0,0,0-.02,0-.03Z"/>
    <path class="cls-2" d="M80.08,167.87c-7.43,0-14.86,0-22.29,0-.62,0-1.23,0-1.85-.12-1-.18-1.94-1.14-1.9-2.19.05-1.11.24-2.21.39-3.31.11-.78.18-1.56.27-2.33.17-1.56.35-3.12.45-4.69.12-1.89.45-3.77.67-5.65.09-.84.2-1.65.61-2.42.44-.82,1.13-1.25,1.96-1.54.59-.21,1.2-.22,1.83-.22,13.29,0,26.58.01,39.87-.01.98,0,1.87.21,2.73.6.4.18.59.59.84.94.93,1.29.87,2.8,1.01,4.28.17,1.91.43,3.81.67,5.71.21,1.68.39,3.36.47,5.06.05,1,.2,2.01.39,3,.23,1.19-.72,2.59-1.9,2.8-.58.1-1.15.11-1.72.11-7.49,0-14.99,0-22.48,0Z"/>
    <path class="cls-4" d="M54.75,98.93c-.3-1.46-.37-2.96-.57-4.43-.12-.82-.08-1.5.33-2.17.28-.47.66-.75,1.23-.88,1.2-.29,2.41-.19,3.62-.19,14.65,0,29.3,0,43.95,0,.68,0,1.31.18,1.92.49.58.29.77.86.81,1.39.06.93.04,1.87-.16,2.82-.21,1-.09,2.07-.22,3.09-.22,1.78-.44,3.56-.66,5.34-.22,1.75-.44,3.51-.46,5.29-.01,1.26-.52,2.4-1.42,3.22-.44.4-1.11.74-1.81.74-.89,0-1.78,0-2.67,0-13.02,0-26.03,0-39.05,0-1.18,0-2.17-.34-2.86-1.36-.12-.63-.29-1.27-.45-1.88-.17-.64-.23-1.31-.37-1.95-.28-1.29.12-2.63-.46-3.98-.41-.94-.07-2.17-.3-3.27-.13-.63-.23-1.3-.16-1.97.02-.17-.07-.27-.24-.3Z"/>
    <path class="cls-7" d="M54.75,98.93c.17.03.26.13.24.3-.07.67.02,1.34.16,1.97.23,1.1-.11,2.33.3,3.27.58,1.35.18,2.69.46,3.98.14.64.2,1.3.37,1.95.16.61.32,1.25.45,1.88-.59-.55-.78-1.28-.84-2.04-.13-1.67-.39-3.33-.58-4.99-.1-.81-.19-1.63-.22-2.44-.04-1.3-.44-2.56-.33-3.87Z"/>
    <path class="cls-7" d="M52.88,173.2c.1.66-.41,1.17-.45,1.81-.05.8-.53,1.48-.7,2.26-.06.3-.03.79-.51.93,0-.85.43-1.58.62-2.38.18-.78.51-1.51.77-2.27.05-.15.04-.34.27-.35Z"/>
    <path class="cls-7" d="M55.62,171.25c0,.12,0,.28-.14.31-.73.17-1.02.74-1.22,1.36-.06.18-.23.38-.28.19-.21-.71-.56-.24-.87-.17.64-.87,1.37-1.6,2.52-1.7Z"/>
    <path class="cls-7" d="M51.18,178.44c.1,1.01.02,1.98-.78,2.73.01-.79.38-1.49.63-2.22.06-.17.07-.35.15-.52Z"/>
    <path class="cls-7" d="M48.14,190.26c.51.09.96.24.88.91-.47-.13-.79-.41-.88-.91Z"/>
  </g>
</svg>