<?xml version="1.0" encoding="UTF-8" standalone="no"?>
<svg id="Layer_1" data-name="Layer 1" viewBox="0 0 955.99997 620.64995" version="1.1" width="956" height="620.64996"
   xmlns="http://www.w3.org/2000/svg">
   <defs id="defs1">
      <style id="style1">
         .cls-1 {
            fill: #fedb50;
         }

         .cls-1,
         .cls-2,
         .cls-3,
         .cls-4,
         .cls-5,
         .cls-6,
         .cls-7,
         .cls-8,
         .cls-9,
         .cls-10,
         .cls-11,
         .cls-12,
         .cls-13 {
            stroke-width: 0px;
         }

         .cls-2 {
            fill: #3975a5;
         }

         .cls-3 {
            fill: #014173;
         }

         .cls-4 {
            fill: #ec8d24;
         }

         .cls-5 {
            fill: #3dda84;
         }

         .cls-6 {
            fill: #293130;
         }

         .cls-7 {
            fill: #29b5f5;
         }

         .cls-8 {
            fill: #eb8d24;
         }

         .cls-9 {
            fill: #53c4f6;
         }

         .cls-10 {
            fill: #f7be3c;
         }

         .cls-11 {
            fill: #e45b2d;
         }

         .cls-12 {
            fill: #01569a;
         }

         .cls-13 {
            fill: #53c3f6;
         }
      </style>
   </defs>
   <g id="g23" transform="translate(-700.55,-484.5)">
      <g id="g4">
         <polygon class="cls-6" points="1174.01,899.83 700.55,694.5 700.55,1105.15 " id="polygon1" />
         <polygon class="cls-6" points="1175.95,895.15 1175.95,484.5 702.49,689.83 " id="polygon2" />
         <polygon class="cls-6" points="1656.55,694.5 1183.1,899.83 1656.55,1105.15 " id="polygon3" />
         <polygon class="cls-6" points="1182.49,895.7 1655.95,690.37 1182.49,485.05 " id="polygon4" />
      </g>
      <path class="cls-5"
         d="m 755.66,936.5 c -0.07,-1.82 0.26,-3.6 0.52,-5.38 1.3,-8.9 3.88,-17.4 7.87,-25.47 6.25,-12.65 15.1,-23.08 26.55,-31.32 2.62,-1.88 5.34,-3.61 8.17,-5.15 0.48,-0.26 0.61,-0.43 0.3,-0.97 -4.59,-7.9 -9.15,-15.81 -13.72,-23.72 -1.01,-1.74 -0.76,-3.42 0.64,-4.39 1.47,-1.02 3.42,-0.56 4.38,1.09 1.66,2.85 3.3,5.71 4.95,8.57 3.01,5.21 6.03,10.42 9.03,15.64 0.31,0.54 0.52,0.72 1.18,0.42 8.9,-3.96 18.21,-6.35 27.92,-7.18 15.38,-1.31 30.17,0.95 44.3,7.23 0.57,0.26 0.75,0.04 1.01,-0.4 4.65,-8.08 9.32,-16.14 13.97,-24.22 0.65,-1.13 1.57,-1.75 2.88,-1.69 2.26,0.12 3.55,2.48 2.43,4.48 -1.47,2.63 -3,5.22 -4.5,7.83 -3.13,5.42 -6.25,10.84 -9.4,16.24 -0.34,0.58 -0.25,0.78 0.32,1.1 15.09,8.47 26.57,20.43 34.37,35.88 4.33,8.58 7.07,17.66 8.29,27.19 0.18,1.4 0.3,2.81 0.45,4.22 H 755.67 Z M 802,897.66 c -3.93,0 -7.17,3.23 -7.15,7.15 0.01,3.87 3.24,7.11 7.11,7.13 3.91,0.03 7.17,-3.21 7.18,-7.13 0,-3.95 -3.19,-7.15 -7.13,-7.16 z m 86.26,7.17 c 0,-3.97 -3.16,-7.17 -7.1,-7.18 -3.95,0 -7.15,3.19 -7.16,7.13 0,3.92 3.24,7.17 7.15,7.15 3.89,-0.01 7.1,-3.22 7.11,-7.11 z"
         id="path4" />
      <g id="g15">
         <path class="cls-10"
            d="m 1326.34,620.15 c -0.11,0.29 0.18,0.28 0.31,0.35 2.47,1.44 4.96,2.87 7.44,4.3 15.99,9.23 31.98,18.46 47.97,27.69 0.09,0.05 0.18,0.12 0.27,0.18 -0.05,0.25 -0.24,0.35 -0.44,0.46 -0.4,0.22 -0.8,0.45 -1.2,0.68 -3.72,2.14 -7.44,4.29 -11.15,6.44 -1.94,1.12 -3.86,2.26 -5.79,3.39 -0.19,-0.11 -0.39,-0.21 -0.58,-0.32 -3.45,-1.99 -6.91,-3.99 -10.36,-5.98 -7.08,-4.09 -14.16,-8.17 -21.24,-12.26 -1.85,-1.06 -3.7,-2.11 -5.55,-3.17 -0.15,0.07 -0.31,0.13 -0.45,0.21 -3.39,1.95 -6.78,3.9 -10.17,5.86 -6.59,3.8 -13.17,7.61 -19.75,11.41 -3.82,2.2 -7.64,4.41 -11.45,6.61 -3.42,1.97 -6.85,3.94 -10.26,5.92 -1.45,0.84 -2.88,1.7 -4.32,2.54 -0.19,0 -0.35,-0.09 -0.51,-0.18 -5.36,-3.1 -10.72,-6.2 -16.09,-9.28 -0.77,-0.44 -1.49,-1 -2.37,-1.26 v -0.22 c 0.27,0.16 0.41,-0.11 0.58,-0.21 10.93,-6.29 21.85,-12.59 32.76,-18.89 13.83,-7.98 27.66,-15.96 41.48,-23.95 0.12,-0.07 0.35,-0.08 0.32,-0.32 z"
            id="path5" />
         <path class="cls-11"
            d="m 1250.64,663.74 c 0.87,0.26 1.59,0.81 2.37,1.26 5.37,3.08 10.73,6.18 16.09,9.28 0.16,0.09 0.32,0.19 0.51,0.18 -0.13,0.28 -0.09,0.58 -0.09,0.87 0,6.96 0,13.92 -0.01,20.88 -0.24,0.02 -0.41,-0.15 -0.59,-0.26 -5.89,-3.4 -11.79,-6.8 -17.68,-10.2 -0.19,-0.11 -0.35,-0.28 -0.59,-0.27 v -21.74 z"
            id="path6" />
         <path class="cls-11"
            d="m 1307.02,761.4 c -1.86,-1.06 -3.73,-2.12 -5.59,-3.2 -4.2,-2.42 -8.4,-4.85 -12.61,-7.26 -0.37,-0.21 -0.49,-0.45 -0.49,-0.87 0.01,-21.35 0,-42.7 0.01,-64.05 0,-0.18 0.02,-0.37 0.03,-0.55 0.04,-0.16 0.16,-0.24 0.29,-0.31 0.95,-0.55 1.91,-1.1 2.86,-1.65 3.97,-2.29 7.94,-4.58 11.91,-6.86 1.19,-0.68 2.34,-1.45 3.59,-2.01 0.18,0.23 0.12,0.49 0.12,0.75 0,6.71 0,13.42 0,20.12 0,0.25 -0.06,0.52 0.09,0.75 0.05,0.04 0.09,0.07 0.14,0.11 1.48,0.85 2.97,1.7 4.45,2.55 4.73,2.72 9.46,5.45 14.19,8.18 0,0.33 0,0.66 0,0.99 0,6.92 0,13.84 0,20.77 0,0 0.01,-0.01 0.01,-0.01 -0.37,-0.08 -0.67,-0.29 -0.99,-0.47 -3.45,-1.99 -6.91,-3.98 -10.36,-5.98 -2.45,-1.42 -4.89,-2.84 -7.34,-4.26 -0.43,0.06 -0.2,0.4 -0.2,0.58 -0.01,13.96 -0.01,27.92 -0.01,41.88 0,0.27 0.07,0.56 -0.12,0.8 z"
            id="path7" />
         <path class="cls-4"
            d="m 1307.38,696.38 c 0,0 -0.09,-0.07 -0.14,-0.11 0,-0.09 0.01,-0.18 0.01,-0.27 0,-6.96 0,-13.92 0,-20.88 0,-0.13 0,-0.26 -0.02,-0.38 -0.02,-0.12 -0.1,-0.14 -0.2,-0.09 -1.26,0.57 -2.4,1.33 -3.59,2.01 -3.98,2.28 -7.94,4.57 -11.91,6.86 -0.95,0.55 -1.91,1.1 -2.86,1.65 -0.13,0.07 -0.26,0.15 -0.29,0.31 -0.25,-0.03 -0.41,0.14 -0.59,0.25 -5.88,3.39 -11.75,6.78 -17.63,10.17 -0.2,0.12 -0.38,0.29 -0.64,0.3 0,-6.96 0,-13.92 0.01,-20.88 0,-0.29 -0.04,-0.59 0.09,-0.87 1.44,-0.85 2.87,-1.71 4.32,-2.54 3.42,-1.98 6.84,-3.94 10.26,-5.92 3.82,-2.2 7.64,-4.4 11.45,-6.61 6.59,-3.8 13.17,-7.61 19.75,-11.41 3.39,-1.96 6.78,-3.91 10.17,-5.86 0.14,-0.08 0.3,-0.14 0.45,-0.21 0,7.27 0,14.55 0,21.82 0,7 0,14.01 0,21.01 0,0.24 0.01,0.48 0.02,0.72 -1.51,0.87 -3.02,1.74 -4.53,2.61 -4.61,2.66 -9.22,5.31 -13.83,7.97 -0.14,0.08 -0.3,0.15 -0.31,0.35 z"
            id="path8" />
         <path class="cls-11"
            d="m 1326.02,663.72 c 0,-7.27 0,-14.55 0,-21.82 1.85,1.06 3.7,2.11 5.55,3.17 7.08,4.08 14.16,8.17 21.24,12.26 3.45,1.99 6.91,3.99 10.36,5.98 0.19,0.11 0.39,0.21 0.58,0.32 0,7.24 0,14.47 0,21.71 -0.23,0.04 -0.37,-0.13 -0.54,-0.23 -12.2,-7.04 -24.4,-14.08 -36.59,-21.12 -0.19,-0.11 -0.35,-0.27 -0.59,-0.27 z"
            id="path9" />
         <path class="cls-4"
            d="m 1307.35,718.15 c 2.45,1.42 4.89,2.85 7.34,4.26 3.45,2 6.91,3.98 10.36,5.98 0.32,0.18 0.62,0.39 0.99,0.47 0,0.72 -0.02,1.43 -0.02,2.15 0,6.38 0,12.76 0,19.14 0,0.3 0,0.53 -0.33,0.72 -6.07,3.48 -12.12,6.99 -18.18,10.48 -0.05,0.03 -0.1,0.04 -0.15,0.06 -0.14,-0.2 -0.1,-0.42 -0.1,-0.64 0,-13.99 0,-27.99 0,-41.98 0,-0.22 -0.05,-0.44 0.1,-0.64 z"
            id="path10" />
         <path class="cls-8"
            d="m 1326.02,728.87 c 0,-6.92 0,-13.84 0,-20.77 0,-0.33 0,-0.66 0,-0.99 0.86,-0.49 1.73,-0.98 2.58,-1.48 4.74,-2.74 9.49,-5.46 14.22,-8.22 0.64,-0.37 1.38,-0.62 1.86,-1.23 0.3,0.1 0.2,0.36 0.2,0.56 0,6.95 0,13.9 0,20.85 0,0.28 -0.06,0.47 -0.33,0.62 -6.11,3.52 -12.22,7.04 -18.33,10.56 -0.06,0.04 -0.14,0.05 -0.2,0.08 z"
            id="path11" />
         <path class="cls-4"
            d="m 1363.75,685.33 c 0,-7.24 0,-14.47 0,-21.71 1.93,-1.13 3.86,-2.27 5.79,-3.39 3.71,-2.15 7.43,-4.29 11.15,-6.44 0.4,-0.23 0.8,-0.46 1.2,-0.68 0.19,-0.11 0.39,-0.21 0.44,-0.46 0.29,0.07 0.22,0.3 0.22,0.49 0,7 0,14.01 0,21.01 0,0.24 -0.06,0.4 -0.28,0.53 -6.13,3.53 -12.25,7.06 -18.37,10.59 -0.04,0.03 -0.1,0.03 -0.15,0.04 z"
            id="path12" />
         <path class="cls-10"
            d="m 1344.67,696.19 c -0.49,0.61 -1.22,0.85 -1.86,1.23 -4.73,2.75 -9.48,5.48 -14.22,8.22 -0.86,0.5 -1.72,0.98 -2.58,1.48 -4.73,-2.73 -9.46,-5.45 -14.19,-8.18 -1.48,-0.85 -2.96,-1.7 -4.45,-2.55 0,-0.2 0.16,-0.27 0.31,-0.35 4.61,-2.66 9.22,-5.31 13.83,-7.97 1.51,-0.87 3.02,-1.74 4.53,-2.61 2.01,1.15 4.01,2.29 6.02,3.44 4.05,2.33 8.11,4.67 12.16,7.01 0.16,0.09 0.31,0.2 0.46,0.29 z"
            id="path13" />
         <path class="cls-11"
            d="m 1307.35,718.15 c -0.15,0.19 -0.1,0.42 -0.1,0.64 0,13.99 0,27.99 0,41.98 0,0.22 -0.04,0.44 0.1,0.64 -0.11,0.13 -0.23,0.12 -0.33,0 0.2,-0.24 0.12,-0.53 0.12,-0.8 0,-13.96 0,-27.92 0.01,-41.88 0,-0.19 -0.23,-0.52 0.2,-0.58 z"
            id="path14" />
         <path class="cls-11"
            d="m 1307.02,674.65 c 0.1,-0.05 0.19,-0.03 0.2,0.09 0.02,0.13 0.02,0.26 0.02,0.38 0,6.96 0,13.92 0,20.88 0,0.09 0,0.18 -0.01,0.27 -0.15,-0.24 -0.09,-0.5 -0.09,-0.75 0,-6.71 0,-13.42 0,-20.12 0,-0.25 0.06,-0.52 -0.12,-0.75 z"
            id="path15" />
      </g>
      <g id="g20">
         <path class="cls-9"
            d="m 1548.55,814.5 c -2.34,2.33 -4.51,4.49 -6.67,6.65 -31.56,31.56 -63.13,63.13 -94.69,94.69 -0.52,0.52 -1.07,1.01 -1.54,1.57 -0.38,0.44 -0.6,0.34 -0.96,-0.03 -7.77,-7.79 -15.55,-15.57 -23.34,-23.34 -0.46,-0.46 -0.39,-0.67 0.03,-1.09 4.19,-4.15 8.35,-8.33 12.52,-12.5 21.8,-21.81 43.61,-43.61 65.41,-65.42 0.35,-0.35 0.68,-0.55 1.2,-0.55 15.76,0.02 31.51,0.01 47.27,0.01 h 0.78 z"
            id="path16" />
         <path class="cls-13"
            d="m 1481.64,905.66 c 0.38,-0.4 0.75,-0.82 1.14,-1.21 5.47,-5.48 10.95,-10.95 16.42,-16.44 0.4,-0.4 0.78,-0.6 1.37,-0.6 15.64,0.02 31.27,0.01 46.91,0.02 0.25,0 0.52,-0.08 0.88,0.14 -1.49,1.47 -2.95,2.91 -4.4,4.36 -12.06,12.07 -24.13,24.14 -36.19,36.21 -0.58,0.58 -1.14,1.18 -1.71,1.76 -0.04,-0.01 -0.09,-0.02 -0.13,-0.03 -3.3,-3.31 -6.6,-6.62 -9.9,-9.93 -4.53,-4.54 -9.07,-9.07 -13.6,-13.6 -0.25,-0.25 -0.52,-0.47 -0.78,-0.7 z"
            id="path17" />
         <path class="cls-12"
            d="m 1506.46,930.48 c 0.36,0.34 0.73,0.68 1.08,1.03 13.36,13.36 26.71,26.71 40.07,40.07 0.24,0.24 0.55,0.43 0.67,0.8 -0.28,0.25 -0.62,0.13 -0.92,0.13 -15.55,0 -31.09,0 -46.64,0.01 -0.51,0 -0.93,-0.05 -1.34,-0.46 -5.42,-5.45 -10.86,-10.88 -16.29,-16.31 -0.08,-0.08 -0.15,-0.18 -0.23,-0.27 0.29,-0.7 1.03,-0.96 1.46,-1.52 0.5,-0.66 1.16,-1.02 1.93,-1.29 3.02,-1.04 6.02,-2.11 9.03,-3.18 1.11,-0.39 1.38,-0.93 1.19,-2.01 -0.11,-0.6 -0.44,-1.12 -0.25,-1.84 0.09,-0.36 0.41,-1.03 0.03,-1.44 -0.37,-0.41 -0.36,-0.82 -0.31,-1.29 0.25,0 0.02,0.35 0.27,0.34 q 0.29,-1.49 1.27,-2.81 c 0.2,-0.27 0.45,-0.5 0.6,-0.79 0.57,-1.1 1.41,-2 2.2,-2.92 1.11,-1.29 2.25,-2.57 3.47,-3.76 0.87,-0.86 1.54,-1.95 2.72,-2.48 z"
            id="path18" />
         <path class="cls-7"
            d="m 1481.64,905.66 c 0.26,0.23 0.53,0.46 0.78,0.7 4.54,4.53 9.07,9.06 13.6,13.6 3.3,3.31 6.6,6.62 9.9,9.93 -4.73,4.72 -9.47,9.44 -14.19,14.17 -3.38,3.38 -6.74,6.77 -10.1,10.16 -0.2,-0.17 -0.41,-0.32 -0.59,-0.5 -7.72,-7.71 -15.43,-15.43 -23.15,-23.14 -0.36,-0.36 -0.69,-0.58 -0.12,-1.15 7.86,-7.82 15.69,-15.66 23.53,-23.5 0.1,-0.1 0.23,-0.18 0.34,-0.27 z"
            id="path19" />
         <path class="cls-3"
            d="m 1481.64,954.22 c 3.37,-3.39 6.73,-6.78 10.1,-10.16 4.72,-4.73 9.46,-9.45 14.19,-14.17 0.04,0 0.09,0.01 0.13,0.03 0.13,0.19 0.26,0.38 0.4,0.56 -1.18,0.53 -1.85,1.62 -2.72,2.48 -1.21,1.19 -2.35,2.47 -3.47,3.76 -0.79,0.91 -1.64,1.82 -2.2,2.92 -0.15,0.29 -0.4,0.53 -0.6,0.79 q -0.98,1.32 -1.27,2.81 c -0.25,0.02 -0.02,-0.34 -0.27,-0.34 -0.05,0.47 -0.06,0.88 0.31,1.29 0.38,0.42 0.06,1.09 -0.03,1.44 -0.19,0.73 0.15,1.25 0.25,1.84 0.19,1.08 -0.08,1.62 -1.19,2.01 -3.01,1.07 -6.01,2.14 -9.03,3.18 -0.78,0.27 -1.43,0.64 -1.93,1.29 -0.43,0.56 -1.17,0.83 -1.46,1.52 -0.47,-0.37 -0.93,-0.74 -1.22,-1.27 z"
            id="path20" />
      </g>
      <g id="g22">
         <path class="cls-2"
            d="m 1033.11,622.49 c 0.02,0.17 0.16,0.11 0.25,0.11 2.06,0.08 4.11,0.24 6.15,0.5 1,0.13 1.99,0.27 2.98,0.42 1.19,0.18 2.37,0.4 3.54,0.71 1.17,0.31 2.3,0.78 3.37,1.33 2.85,1.47 5.2,3.49 6.86,6.27 1.27,2.13 1.92,4.44 1.91,6.92 0,9.45 0.08,18.9 -0.04,28.35 -0.08,6.82 -5.14,12.73 -11.88,13.96 -0.97,0.18 -1.94,0.25 -2.92,0.25 -9.56,0 -19.12,0 -28.68,0 -8.59,0 -16.32,6.39 -17.95,14.84 -0.22,1.12 -0.32,2.24 -0.32,3.38 0,4.25 0,8.5 0,12.76 0,0.31 -0.07,0.41 -0.4,0.41 -3.17,-0.01 -6.34,0 -9.52,0 -3.16,0 -6.07,-0.81 -8.62,-2.74 -1.74,-1.32 -3.1,-2.97 -4.19,-4.85 -1.58,-2.73 -2.46,-5.72 -3.13,-8.78 -0.54,-2.44 -1.01,-4.9 -1.31,-7.39 -0.1,-0.83 -0.15,-1.66 -0.24,-2.49 -0.01,-0.11 0.08,-0.27 -0.12,-0.32 v -6.08 c 0.18,-0.03 0.11,-0.18 0.12,-0.28 0.06,-0.63 0.1,-1.26 0.17,-1.89 0.27,-2.38 0.68,-4.73 1.19,-7.07 0.49,-2.2 0.95,-4.42 1.93,-6.47 3.25,-6.85 8.7,-10.5 16.24,-10.7 6.81,-0.18 13.62,-0.04 20.44,-0.04 6.6,0 13.2,0 19.8,0 0.29,0 0.38,-0.06 0.38,-0.36 -0.02,-0.96 0,-1.91 0,-2.87 0,-0.54 0.07,-0.48 -0.48,-0.48 -9.39,0 -18.79,0 -28.18,0 q -0.45,0 -0.45,-0.45 c 0,-3.5 0,-6.99 0,-10.49 0,-1.67 0.07,-3.34 0.38,-4.98 0.37,-1.96 1.09,-3.75 2.45,-5.25 1.45,-1.6 3.28,-2.6 5.27,-3.36 3.19,-1.21 6.54,-1.77 9.9,-2.21 2.12,-0.28 4.25,-0.46 6.38,-0.56 0.09,0 0.23,0.07 0.25,-0.11 h 8.48 z m -20.39,8.93 c -3.01,0 -5.44,2.49 -5.44,5.55 0,3.05 2.47,5.53 5.47,5.53 2.99,0 5.44,-2.49 5.45,-5.52 0,-3.07 -2.46,-5.56 -5.48,-5.56 z"
            id="path21" />
         <path class="cls-1"
            d="m 1051.75,712.7 c -7.41,0 -14.83,0 -22.24,0 -0.32,0 -0.41,0.07 -0.4,0.4 0.02,0.99 0.02,1.98 0,2.97 0,0.29 0.08,0.34 0.35,0.34 9.38,0 18.77,0 28.15,0 q 0.58,0 0.58,0.57 c 0,3.58 0.02,7.17 -0.01,10.75 -0.03,3.69 -1.5,6.74 -4.19,9.23 -2.25,2.08 -4.92,3.45 -7.77,4.49 -3.51,1.27 -7.13,2.11 -10.83,2.62 -2.94,0.41 -5.89,0.54 -8.86,0.38 -3.67,-0.21 -7.26,-0.86 -10.8,-1.82 -2.95,-0.81 -5.79,-1.85 -8.41,-3.45 -1.83,-1.12 -3.46,-2.46 -4.77,-4.17 -1.72,-2.25 -2.54,-4.8 -2.54,-7.63 0,-9.15 -0.07,-18.3 0.03,-27.45 0.07,-6.34 3.15,-10.91 8.83,-13.69 1.89,-0.92 3.92,-1.24 6.02,-1.24 9.48,0 18.97,0 28.45,0 5.5,0 10.02,-2.18 13.7,-6.2 1.88,-2.06 3.21,-4.44 4.01,-7.12 0.4,-1.35 0.68,-2.71 0.72,-4.12 0.14,-4.52 0.03,-9.03 0.05,-13.55 0,-0.31 0.06,-0.4 0.39,-0.4 3.71,0.02 7.41,0 11.12,0.03 1.94,0.02 3.8,0.45 5.51,1.37 0.7,0.37 1.35,0.82 1.97,1.32 2.55,2.07 4.06,4.83 5.2,7.83 0.65,1.73 1.09,3.51 1.54,5.3 0.54,2.16 0.97,4.34 1.3,6.54 0.11,0.7 0.16,1.4 0.25,2.1 0.1,0.73 0.18,1.47 0.23,2.2 0.04,0.52 0.15,1.04 0.09,1.58 -0.03,0.28 0.05,0.57 0.06,0.85 0.22,5.55 -0.66,10.92 -2.51,16.15 -0.84,2.37 -1.71,4.72 -2.94,6.92 -1.05,1.87 -2.32,3.56 -4.09,4.82 -1.6,1.15 -3.4,1.76 -5.34,1.99 -0.84,0.1 -1.69,0.11 -2.53,0.11 -6.78,0 -13.56,0 -20.34,0 v 0 z m -0.82,16.62 c 0,-3.05 -2.45,-5.52 -5.47,-5.52 -3.01,0 -5.47,2.47 -5.47,5.52 0,3.06 2.47,5.57 5.47,5.57 3.01,0 5.47,-2.51 5.47,-5.57 z"
            id="path22" />
      </g>
   </g>
</svg>