<?xml version="1.0" encoding="UTF-8"?>
<svg id="Layer_1" data-name="Layer 1" xmlns="http://www.w3.org/2000/svg" viewBox="0 0 939.35 610.34">
  <defs>
    <style>
      .cls-1 {
        fill: #293130;
      }

      .cls-1, .cls-2, .cls-3 {
        stroke-width: 0px;
      }

      .cls-2 {
        fill: #fff;
      }

      .cls-3 {
        fill: #fabb05;
      }
    </style>
  </defs>
  <g>
    <path class="cls-1" d="M363.92,166.35l-134.79-33.56c-37.04-9.22-76.19,2.01-102.7,29.48l-96.46,99.95c-26.51,27.47-36.35,66.99-25.82,103.68l38.33,133.51c10.53,36.69,39.84,64.98,76.88,74.2l134.79,33.56c37.04,9.22,76.19-2.01,102.7-29.48l96.46-99.95c26.51-27.47,36.35-66.99,25.82-103.68l-38.33-133.51c-10.53-36.69-39.84-64.98-76.88-74.2Z"/>
    <path class="cls-1" d="M820,36.73L685.21,3.17c-37.04-9.22-76.19,2.01-102.7,29.48l-96.46,99.95c-26.51,27.47-36.35,66.99-25.82,103.68l38.33,133.51c10.53,36.69,39.84,64.98,76.88,74.2l134.79,33.56c37.04,9.22,76.19-2.01,102.7-29.48l96.46-99.95c26.51-27.47,36.35-66.99,25.82-103.68l-38.33-133.51c-10.53-36.69-39.84-64.98-76.88-74.2Z"/>
  </g>
  <g>
    <path class="cls-3" d="M337.31,307.56c0,9.64.02,19.27-.02,28.91,0,.98.3,1.63.98,2.3,13.61,13.58,27.2,27.18,40.82,40.76.83.82.93,1.24.03,2.13-13.63,13.56-27.21,27.17-40.82,40.75-.72.71-1.01,1.42-1,2.43.03,19.23,0,38.45.05,57.68,0,1.2-.27,1.54-1.51,1.54-19.18-.04-38.37-.02-57.55-.05-1.1,0-1.88.29-2.68,1.08-13.54,13.59-27.12,27.14-40.66,40.73-.8.8-1.18.88-2.03.03-13.53-13.59-27.11-27.14-40.66-40.73-.78-.78-1.55-1.12-2.66-1.12-19.14.03-38.28.01-57.41.05-1.28,0-1.7-.23-1.69-1.63.06-19.23.03-38.45.06-57.68,0-.98-.3-1.64-.97-2.31-13.62-13.58-27.2-27.19-40.83-40.76-.85-.84-.89-1.26-.02-2.13,13.63-13.62,27.22-27.29,40.84-40.92.68-.68.98-1.34.98-2.32-.03-19.18,0-38.37-.05-57.55,0-1.33.25-1.76,1.69-1.76,19.14.05,38.28.03,57.41.06,1.06,0,1.81-.28,2.56-1.04,13.57-13.62,27.18-27.2,40.75-40.82.84-.84,1.23-.8,2.04.02,13.63,13.69,27.3,27.34,40.94,41.01.63.63,1.26.83,2.11.83,19.27-.02,38.54,0,57.81-.04,1.19,0,1.54.27,1.53,1.51-.06,9.68-.03,19.36-.03,29.04ZM129.49,380.57c-.01,57.61,46.81,104.43,104.43,104.42,57.59-.01,104.35-46.71,104.42-104.3.07-57.55-46.72-104.45-104.23-104.49-57.75-.04-104.6,46.7-104.61,104.36Z"/>
    <path class="cls-3" d="M325.01,380.68c-.04,50.25-40.86,91.02-91.11,90.99-50.33-.02-91.12-40.84-91.08-91.15.04-50.34,40.93-91.06,91.38-90.99,50.13.07,90.86,40.95,90.82,91.14ZM223.99,426.38c1.51,0,3.03-.11,4.52.03,1.3.12,1.7-.38,1.97-1.58,3.82-17.08,7.7-34.14,11.56-51.21,2.83-12.53,5.63-25.07,8.49-37.6.23-1.02-.1-1.07-.91-1.06-3.28.03-6.57.05-9.85,0-.99-.02-1.42.2-1.67,1.29-5.28,23.47-10.61,46.93-15.92,70.4-1.39,6.14-2.75,12.28-4.16,18.41-.22.96-.15,1.45,1.06,1.37,1.64-.11,3.28-.03,4.93-.03ZM284.57,380.34c-.31.61-.86.86-1.3,1.21-7.27,5.68-14.55,11.36-21.85,17.01-.62.48-.9.94-.89,1.75.04,4.26.02,8.52.03,12.79,0,.31-.21.71.26.97.74-.54,1.51-1.07,2.24-1.64,11.13-8.6,22.26-17.21,33.38-25.82,1.26-.98,2.92-1.74,3.65-3.03.76-1.34.13-3.21.24-4.83.06-.85-.24-1.37-.91-1.89-12.29-9.57-24.56-19.17-36.83-28.76-.61-.48-1.26-.9-2.05-1.46,0,4.97.01,9.68-.02,14.38,0,.67.43.92.84,1.24,3.36,2.62,6.72,5.24,10.08,7.86,4.37,3.41,8.74,6.81,13.12,10.22ZM207.08,346.86c-.42.32-.59.45-.76.58-11.85,9.21-23.62,18.5-35.59,27.55-2.6,1.97-4.02,3.93-3.47,7.21.14.83.25,1.45.96,2,12.26,9.54,24.5,19.11,36.74,28.67.61.47,1.26.9,1.95,1.39.09-.3.15-.42.15-.54,0-4.53,0-9.06.03-13.59,0-.63-.31-.95-.75-1.29-2.39-1.84-4.76-3.71-7.14-5.56-5.38-4.2-10.77-8.4-16.22-12.64.4-.33.74-.61,1.09-.88,7.32-5.7,14.64-11.4,21.95-17.11.46-.36,1.08-.6,1.07-1.4-.03-4.7-.01-9.4-.01-14.38Z"/>
  </g>
  <path class="cls-2" d="M722.53,303.21c7.65-1.06,14.79-2.26,21.73-4.47,22.2-7.08,34.57-22.49,38.25-45.18,1.72-10.6,2.31-21.23-.41-31.81-1.92-7.47-5.35-14.14-10.33-20-1.13-1.33-1.54-2.37-.97-4.23,3.29-10.71,2.24-21.29-1.27-31.77-.63-1.88-1.77-2.39-3.58-2.34-5.65.16-10.92,1.84-16.04,4.01-5.71,2.42-11.09,5.49-16.21,8.97-1.46,1-2.73,1.15-4.45.72-20.81-5.18-41.64-5.2-62.45-.01-1.86.46-3.17.18-4.73-.83-8.9-5.77-18.07-10.95-28.78-12.59-5.52-.85-6.17-.52-7.69,4.75-2.81,9.74-3.43,19.54-.33,29.34.48,1.51.18,2.5-.81,3.7-9.96,11.99-13.36,25.92-12.22,41.25.65,8.67,1.92,17.18,5.15,25.3,6.92,17.4,20.33,27.12,37.88,31.92,5.74,1.57,11.62,2.45,17.98,3.26-4.71,4.97-7.11,10.58-8.03,16.81-.2,1.35-1.02,1.71-2.01,2.15-14.75,6.51-28.67,2.25-37.16-11.43-4.52-7.28-10.42-12.68-19.14-14.27-2.78-.51-6.33-.86-7.57,1.72-1.45,3,2.07,4.59,4.17,5.88,6.78,4.15,11.59,10.07,14.11,17.32,5.44,15.66,20.24,21.8,35.9,20.66,2.98-.22,5.95-.65,8.89-1.15,1.3-.22,1.97-.26,1.97,1.38,0,7.91.22,15.82.08,23.73-.09,5.2-4.47,7.72-9.92,5.88-15.22-5.14-29.14-12.73-41.41-23.08-34.54-29.16-51.31-66.54-49.74-111.65,2.18-62.93,48.76-116.16,110.81-127.51,70.83-12.96,140.31,33.75,155.25,104.39,14.34,67.77-22.58,134.57-87.03,157.47-7.32,2.6-11.19-.1-11.17-7.78.04-12.19.16-24.37.12-36.56-.03-8.78-2.12-16.9-8.83-23.93Z"/>
</svg>