<?xml version="1.0" encoding="UTF-8"?>
<svg id="Layer_1" data-name="Layer 1" xmlns="http://www.w3.org/2000/svg" viewBox="0 0 1656.55 1105.15">
  <defs>
    <style>
      .cls-1 {
        fill: #fedb50;
      }

      .cls-1, .cls-2, .cls-3, .cls-4, .cls-5, .cls-6, .cls-7, .cls-8, .cls-9, .cls-10, .cls-11, .cls-12, .cls-13 {
        stroke-width: 0px;
      }

      .cls-2 {
        fill: #3975a5;
      }

      .cls-3 {
        fill: #014173;
      }

      .cls-4 {
        fill: #ec8d24;
      }

      .cls-5 {
        fill: #3dda84;
      }

      .cls-6 {
        fill: #293130;
      }

      .cls-7 {
        fill: #29b5f5;
      }

      .cls-8 {
        fill: #eb8d24;
      }

      .cls-9 {
        fill: #53c4f6;
      }

      .cls-10 {
        fill: #f7be3c;
      }

      .cls-11 {
        fill: #e45b2d;
      }

      .cls-12 {
        fill: #01569a;
      }

      .cls-13 {
        fill: #53c3f6;
      }
    </style>
  </defs>
  <path class="cls-6" d="M170.86,10.79L2.92,301.67c-8.31,14.39,2.08,32.38,18.69,32.38h335.87c16.62,0,27-17.99,18.69-32.38L208.25,10.79c-8.31-14.39-29.08-14.39-37.39,0Z"/>
  <g>
    <polygon class="cls-6" points="700.55 694.5 700.55 1105.15 1174.01 899.83 700.55 694.5"/>
    <polygon class="cls-6" points="1175.95 484.5 702.49 689.83 1175.95 895.15 1175.95 484.5"/>
    <polygon class="cls-6" points="1183.1 899.83 1656.55 1105.15 1656.55 694.5 1183.1 899.83"/>
    <polygon class="cls-6" points="1655.95 690.37 1182.49 485.05 1182.49 895.7 1655.95 690.37"/>
  </g>
  <path class="cls-5" d="M755.66,936.5c-.07-1.82.26-3.6.52-5.38,1.3-8.9,3.88-17.4,7.87-25.47,6.25-12.65,15.1-23.08,26.55-31.32,2.62-1.88,5.34-3.61,8.17-5.15.48-.26.61-.43.3-.97-4.59-7.9-9.15-15.81-13.72-23.72-1.01-1.74-.76-3.42.64-4.39,1.47-1.02,3.42-.56,4.38,1.09,1.66,2.85,3.3,5.71,4.95,8.57,3.01,5.21,6.03,10.42,9.03,15.64.31.54.52.72,1.18.42,8.9-3.96,18.21-6.35,27.92-7.18,15.38-1.31,30.17.95,44.3,7.23.57.26.75.04,1.01-.4,4.65-8.08,9.32-16.14,13.97-24.22.65-1.13,1.57-1.75,2.88-1.69,2.26.12,3.55,2.48,2.43,4.48-1.47,2.63-3,5.22-4.5,7.83-3.13,5.42-6.25,10.84-9.4,16.24-.34.58-.25.78.32,1.1,15.09,8.47,26.57,20.43,34.37,35.88,4.33,8.58,7.07,17.66,8.29,27.19.18,1.4.3,2.81.45,4.22h-171.9ZM802,897.66c-3.93,0-7.17,3.23-7.15,7.15.01,3.87,3.24,7.11,7.11,7.13,3.91.03,7.17-3.21,7.18-7.13,0-3.95-3.19-7.15-7.13-7.16ZM888.26,904.83c0-3.97-3.16-7.17-7.1-7.18-3.95,0-7.15,3.19-7.16,7.13,0,3.92,3.24,7.17,7.15,7.15,3.89-.01,7.1-3.22,7.11-7.11Z"/>
  <g>
    <path class="cls-10" d="M1326.34,620.15c-.11.29.18.28.31.35,2.47,1.44,4.96,2.87,7.44,4.3,15.99,9.23,31.98,18.46,47.97,27.69.09.05.18.12.27.18-.05.25-.24.35-.44.46-.4.22-.8.45-1.2.68-3.72,2.14-7.44,4.29-11.15,6.44-1.94,1.12-3.86,2.26-5.79,3.39-.19-.11-.39-.21-.58-.32-3.45-1.99-6.91-3.99-10.36-5.98-7.08-4.09-14.16-8.17-21.24-12.26-1.85-1.06-3.7-2.11-5.55-3.17-.15.07-.31.13-.45.21-3.39,1.95-6.78,3.9-10.17,5.86-6.59,3.8-13.17,7.61-19.75,11.41-3.82,2.2-7.64,4.41-11.45,6.61-3.42,1.97-6.85,3.94-10.26,5.92-1.45.84-2.88,1.7-4.32,2.54-.19,0-.35-.09-.51-.18-5.36-3.1-10.72-6.2-16.09-9.28-.77-.44-1.49-1-2.37-1.26v-.22c.27.16.41-.11.58-.21,10.93-6.29,21.85-12.59,32.76-18.89,13.83-7.98,27.66-15.96,41.48-23.95.12-.07.35-.08.32-.32h.55Z"/>
    <path class="cls-11" d="M1250.64,663.74c.87.26,1.59.81,2.37,1.26,5.37,3.08,10.73,6.18,16.09,9.28.16.09.32.19.51.18-.13.28-.09.58-.09.87,0,6.96,0,13.92-.01,20.88-.24.02-.41-.15-.59-.26-5.89-3.4-11.79-6.8-17.68-10.2-.19-.11-.35-.28-.59-.27v-21.74Z"/>
    <path class="cls-11" d="M1307.02,761.4c-1.86-1.06-3.73-2.12-5.59-3.2-4.2-2.42-8.4-4.85-12.61-7.26-.37-.21-.49-.45-.49-.87.01-21.35,0-42.7.01-64.05,0-.18.02-.37.03-.55.04-.16.16-.24.29-.31.95-.55,1.91-1.1,2.86-1.65,3.97-2.29,7.94-4.58,11.91-6.86,1.19-.68,2.34-1.45,3.59-2.01.18.23.12.49.12.75,0,6.71,0,13.42,0,20.12,0,.25-.06.52.09.75.05.04.09.07.14.11,1.48.85,2.97,1.7,4.45,2.55,4.73,2.72,9.46,5.45,14.19,8.18,0,.33,0,.66,0,.99,0,6.92,0,13.84,0,20.77,0,0,.01-.01.01-.01-.37-.08-.67-.29-.99-.47-3.45-1.99-6.91-3.98-10.36-5.98-2.45-1.42-4.89-2.84-7.34-4.26-.43.06-.2.4-.2.58-.01,13.96-.01,27.92-.01,41.88,0,.27.07.56-.12.8Z"/>
    <path class="cls-4" d="M1307.38,696.38s-.09-.07-.14-.11c0-.09.01-.18.01-.27,0-6.96,0-13.92,0-20.88,0-.13,0-.26-.02-.38-.02-.12-.1-.14-.2-.09-1.26.57-2.4,1.33-3.59,2.01-3.98,2.28-7.94,4.57-11.91,6.86-.95.55-1.91,1.1-2.86,1.65-.13.07-.26.15-.29.31-.25-.03-.41.14-.59.25-5.88,3.39-11.75,6.78-17.63,10.17-.2.12-.38.29-.64.3,0-6.96,0-13.92.01-20.88,0-.29-.04-.59.09-.87,1.44-.85,2.87-1.71,4.32-2.54,3.42-1.98,6.84-3.94,10.26-5.92,3.82-2.2,7.64-4.4,11.45-6.61,6.59-3.8,13.17-7.61,19.75-11.41,3.39-1.96,6.78-3.91,10.17-5.86.14-.08.3-.14.45-.21,0,7.27,0,14.55,0,21.82,0,7,0,14.01,0,21.01,0,.24.01.48.02.72-1.51.87-3.02,1.74-4.53,2.61-4.61,2.66-9.22,5.31-13.83,7.97-.14.08-.3.15-.31.35Z"/>
    <path class="cls-11" d="M1326.02,663.72c0-7.27,0-14.55,0-21.82,1.85,1.06,3.7,2.11,5.55,3.17,7.08,4.08,14.16,8.17,21.24,12.26,3.45,1.99,6.91,3.99,10.36,5.98.19.11.39.21.58.32,0,7.24,0,14.47,0,21.71-.23.04-.37-.13-.54-.23-12.2-7.04-24.4-14.08-36.59-21.12-.19-.11-.35-.27-.59-.27Z"/>
    <path class="cls-4" d="M1307.35,718.15c2.45,1.42,4.89,2.85,7.34,4.26,3.45,2,6.91,3.98,10.36,5.98.32.18.62.39.99.47,0,.72-.02,1.43-.02,2.15,0,6.38,0,12.76,0,19.14,0,.3,0,.53-.33.72-6.07,3.48-12.12,6.99-18.18,10.48-.05.03-.1.04-.15.06-.14-.2-.1-.42-.1-.64,0-13.99,0-27.99,0-41.98,0-.22-.05-.44.1-.64Z"/>
    <path class="cls-8" d="M1326.02,728.87c0-6.92,0-13.84,0-20.77,0-.33,0-.66,0-.99.86-.49,1.73-.98,2.58-1.48,4.74-2.74,9.49-5.46,14.22-8.22.64-.37,1.38-.62,1.86-1.23.3.1.2.36.2.56,0,6.95,0,13.9,0,20.85,0,.28-.06.47-.33.62-6.11,3.52-12.22,7.04-18.33,10.56-.06.04-.14.05-.2.08Z"/>
    <path class="cls-4" d="M1363.75,685.33c0-7.24,0-14.47,0-21.71,1.93-1.13,3.86-2.27,5.79-3.39,3.71-2.15,7.43-4.29,11.15-6.44.4-.23.8-.46,1.2-.68.19-.11.39-.21.44-.46.29.07.22.3.22.49,0,7,0,14.01,0,21.01,0,.24-.06.4-.28.53-6.13,3.53-12.25,7.06-18.37,10.59-.04.03-.1.03-.15.04Z"/>
    <path class="cls-10" d="M1344.67,696.19c-.49.61-1.22.85-1.86,1.23-4.73,2.75-9.48,5.48-14.22,8.22-.86.5-1.72.98-2.58,1.48-4.73-2.73-9.46-5.45-14.19-8.18-1.48-.85-2.96-1.7-4.45-2.55,0-.2.16-.27.31-.35,4.61-2.66,9.22-5.31,13.83-7.97,1.51-.87,3.02-1.74,4.53-2.61,2.01,1.15,4.01,2.29,6.02,3.44,4.05,2.33,8.11,4.67,12.16,7.01.16.09.31.2.46.29Z"/>
    <path class="cls-11" d="M1307.35,718.15c-.15.19-.1.42-.1.64,0,13.99,0,27.99,0,41.98,0,.22-.04.44.1.64-.11.13-.23.12-.33,0,.2-.24.12-.53.12-.8,0-13.96,0-27.92.01-41.88,0-.19-.23-.52.2-.58Z"/>
    <path class="cls-11" d="M1307.02,674.65c.1-.05.19-.03.2.09.02.13.02.26.02.38,0,6.96,0,13.92,0,20.88,0,.09,0,.18-.01.27-.15-.24-.09-.5-.09-.75,0-6.71,0-13.42,0-20.12,0-.25.06-.52-.12-.75Z"/>
  </g>
  <g>
    <path class="cls-9" d="M1548.55,814.5c-2.34,2.33-4.51,4.49-6.67,6.65-31.56,31.56-63.13,63.13-94.69,94.69-.52.52-1.07,1.01-1.54,1.57-.38.44-.6.34-.96-.03-7.77-7.79-15.55-15.57-23.34-23.34-.46-.46-.39-.67.03-1.09,4.19-4.15,8.35-8.33,12.52-12.5,21.8-21.81,43.61-43.61,65.41-65.42.35-.35.68-.55,1.2-.55,15.76.02,31.51.01,47.27.01h.78Z"/>
    <path class="cls-13" d="M1481.64,905.66c.38-.4.75-.82,1.14-1.21,5.47-5.48,10.95-10.95,16.42-16.44.4-.4.78-.6,1.37-.6,15.64.02,31.27.01,46.91.02.25,0,.52-.08.88.14-1.49,1.47-2.95,2.91-4.4,4.36-12.06,12.07-24.13,24.14-36.19,36.21-.58.58-1.14,1.18-1.71,1.76-.04-.01-.09-.02-.13-.03-3.3-3.31-6.6-6.62-9.9-9.93-4.53-4.54-9.07-9.07-13.6-13.6-.25-.25-.52-.47-.78-.7Z"/>
    <path class="cls-12" d="M1506.46,930.48c.36.34.73.68,1.08,1.03,13.36,13.36,26.71,26.71,40.07,40.07.24.24.55.43.67.8-.28.25-.62.13-.92.13-15.55,0-31.09,0-46.64.01-.51,0-.93-.05-1.34-.46-5.42-5.45-10.86-10.88-16.29-16.31-.08-.08-.15-.18-.23-.27.29-.7,1.03-.96,1.46-1.52.5-.66,1.16-1.02,1.93-1.29,3.02-1.04,6.02-2.11,9.03-3.18,1.11-.39,1.38-.93,1.19-2.01-.11-.6-.44-1.12-.25-1.84.09-.36.41-1.03.03-1.44-.37-.41-.36-.82-.31-1.29.25,0,.02.35.27.34q.29-1.49,1.27-2.81c.2-.27.45-.5.6-.79.57-1.1,1.41-2,2.2-2.92,1.11-1.29,2.25-2.57,3.47-3.76.87-.86,1.54-1.95,2.72-2.48Z"/>
    <path class="cls-7" d="M1481.64,905.66c.26.23.53.46.78.7,4.54,4.53,9.07,9.06,13.6,13.6,3.3,3.31,6.6,6.62,9.9,9.93-4.73,4.72-9.47,9.44-14.19,14.17-3.38,3.38-6.74,6.77-10.1,10.16-.2-.17-.41-.32-.59-.5-7.72-7.71-15.43-15.43-23.15-23.14-.36-.36-.69-.58-.12-1.15,7.86-7.82,15.69-15.66,23.53-23.5.1-.1.23-.18.34-.27Z"/>
    <path class="cls-3" d="M1481.64,954.22c3.37-3.39,6.73-6.78,10.1-10.16,4.72-4.73,9.46-9.45,14.19-14.17.04,0,.09.01.13.03.13.19.26.38.4.56-1.18.53-1.85,1.62-2.72,2.48-1.21,1.19-2.35,2.47-3.47,3.76-.79.91-1.64,1.82-2.2,2.92-.15.29-.4.53-.6.79q-.98,1.32-1.27,2.81c-.25.02-.02-.34-.27-.34-.05.47-.06.88.31,1.29.38.42.06,1.09-.03,1.44-.19.73.15,1.25.25,1.84.19,1.08-.08,1.62-1.19,2.01-3.01,1.07-6.01,2.14-9.03,3.18-.78.27-1.43.64-1.93,1.29-.43.56-1.17.83-1.46,1.52-.47-.37-.93-.74-1.22-1.27Z"/>
  </g>
  <g>
    <path class="cls-2" d="M1033.11,622.49c.02.17.16.11.25.11,2.06.08,4.11.24,6.15.5,1,.13,1.99.27,2.98.42,1.19.18,2.37.4,3.54.71,1.17.31,2.3.78,3.37,1.33,2.85,1.47,5.2,3.49,6.86,6.27,1.27,2.13,1.92,4.44,1.91,6.92,0,9.45.08,18.9-.04,28.35-.08,6.82-5.14,12.73-11.88,13.96-.97.18-1.94.25-2.92.25-9.56,0-19.12,0-28.68,0-8.59,0-16.32,6.39-17.95,14.84-.22,1.12-.32,2.24-.32,3.38,0,4.25,0,8.5,0,12.76,0,.31-.07.41-.4.41-3.17-.01-6.34,0-9.52,0-3.16,0-6.07-.81-8.62-2.74-1.74-1.32-3.1-2.97-4.19-4.85-1.58-2.73-2.46-5.72-3.13-8.78-.54-2.44-1.01-4.9-1.31-7.39-.1-.83-.15-1.66-.24-2.49-.01-.11.08-.27-.12-.32v-6.08c.18-.03.11-.18.12-.28.06-.63.1-1.26.17-1.89.27-2.38.68-4.73,1.19-7.07.49-2.2.95-4.42,1.93-6.47,3.25-6.85,8.7-10.5,16.24-10.7,6.81-.18,13.62-.04,20.44-.04,6.6,0,13.2,0,19.8,0,.29,0,.38-.06.38-.36-.02-.96,0-1.91,0-2.87,0-.54.07-.48-.48-.48-9.39,0-18.79,0-28.18,0q-.45,0-.45-.45c0-3.5,0-6.99,0-10.49,0-1.67.07-3.34.38-4.98.37-1.96,1.09-3.75,2.45-5.25,1.45-1.6,3.28-2.6,5.27-3.36,3.19-1.21,6.54-1.77,9.9-2.21,2.12-.28,4.25-.46,6.38-.56.09,0,.23.07.25-.11h8.48ZM1012.72,631.42c-3.01,0-5.44,2.49-5.44,5.55,0,3.05,2.47,5.53,5.47,5.53,2.99,0,5.44-2.49,5.45-5.52,0-3.07-2.46-5.56-5.48-5.56Z"/>
    <path class="cls-1" d="M1051.75,712.7c-7.41,0-14.83,0-22.24,0-.32,0-.41.07-.4.4.02.99.02,1.98,0,2.97,0,.29.08.34.35.34,9.38,0,18.77,0,28.15,0q.58,0,.58.57c0,3.58.02,7.17-.01,10.75-.03,3.69-1.5,6.74-4.19,9.23-2.25,2.08-4.92,3.45-7.77,4.49-3.51,1.27-7.13,2.11-10.83,2.62-2.94.41-5.89.54-8.86.38-3.67-.21-7.26-.86-10.8-1.82-2.95-.81-5.79-1.85-8.41-3.45-1.83-1.12-3.46-2.46-4.77-4.17-1.72-2.25-2.54-4.8-2.54-7.63,0-9.15-.07-18.3.03-27.45.07-6.34,3.15-10.91,8.83-13.69,1.89-.92,3.92-1.24,6.02-1.24,9.48,0,18.97,0,28.45,0,5.5,0,10.02-2.18,13.7-6.2,1.88-2.06,3.21-4.44,4.01-7.12.4-1.35.68-2.71.72-4.12.14-4.52.03-9.03.05-13.55,0-.31.06-.4.39-.4,3.71.02,7.41,0,11.12.03,1.94.02,3.8.45,5.51,1.37.7.37,1.35.82,1.97,1.32,2.55,2.07,4.06,4.83,5.2,7.83.65,1.73,1.09,3.51,1.54,5.3.54,2.16.97,4.34,1.3,6.54.11.7.16,1.4.25,2.1.1.73.18,1.47.23,2.2.04.52.15,1.04.09,1.58-.03.28.05.57.06.85.22,5.55-.66,10.92-2.51,16.15-.84,2.37-1.71,4.72-2.94,6.92-1.05,1.87-2.32,3.56-4.09,4.82-1.6,1.15-3.4,1.76-5.34,1.99-.84.1-1.69.11-2.53.11-6.78,0-13.56,0-20.34,0h0ZM1050.93,729.32c0-3.05-2.45-5.52-5.47-5.52-3.01,0-5.47,2.47-5.47,5.52,0,3.06,2.47,5.57,5.47,5.57,3.01,0,5.47-2.51,5.47-5.57Z"/>
  </g>
</svg>