<?xml version="1.0" encoding="UTF-8"?>
<svg id="Layer_1" data-name="Layer 1" xmlns="http://www.w3.org/2000/svg" viewBox="0 0 191.48 100">
  <defs>
    <style>
      .cls-1 {
        fill: #33b063;
      }

      .cls-1, .cls-2, .cls-3, .cls-4, .cls-5 {
        stroke-width: 0px;
      }

      .cls-2 {
        fill: #4e7cbe;
      }

      .cls-3 {
        fill: #507ab1;
      }

      .cls-4 {
        fill: #ef5241;
      }

      .cls-5 {
        fill: #faba27;
      }
    </style>
  </defs>
  <path class="cls-2" d="M.04,50.13C.04,34.72.09,19.31,0,3.89-.02,1.27,1.56-.37,4.4.54c7.06,2.24,14.23,4.14,21.35,6.18,3.69,1.06,5.66,3.63,5.66,7.42,0,23.88,0,47.76,0,71.64,0,3.92-1.95,6.48-5.7,7.59-7.11,2.09-14.22,4.18-21.34,6.28-3.2.94-4.33.1-4.33-3.26,0-15.41,0-30.83,0-46.24Z"/>
  <path class="cls-1" d="M191.47,49.93c0,15.17,0,30.34,0,45.51,0,.35,0,.7,0,1.05-.06,2.86-1.26,3.77-4.06,3-3.26-.89-6.51-1.84-9.76-2.77-4.04-1.15-8.08-2.3-12.11-3.46-3.37-.97-5.46-3.72-5.47-7.24,0-23.92,0-47.85,0-71.77,0-3.89,1.96-6.5,5.69-7.6,7.16-2.11,14.31-4.23,21.48-6.32,3.11-.91,4.24-.05,4.24,3.21.01,15.46,0,30.93,0,46.39h0Z"/>
  <path class="cls-5" d="M76.17,49.88c0-10.45,0-20.9,0-31.34,0-3.52,1.62-5.18,5.1-5.18,9.53-.01,19.06-.02,28.59,0,3.95,0,5.52,1.58,5.52,5.53.01,20.78.02,41.56,0,62.34,0,3.86-1.7,5.49-5.6,5.49-9.41,0-18.83,0-28.24-.02-3.76,0-5.37-1.57-5.38-5.3-.02-10.51,0-21.01,0-31.52Z"/>
  <path class="cls-4" d="M36.5,49.87c0-11.85,0-23.69,0-35.54,0-3.69,1.45-4.91,5.1-4.5,7.95.88,15.9,1.74,23.86,2.56,3.69.38,5.7,2.46,5.7,6.2.01,20.83.01,41.67,0,62.5,0,4.1-1.73,6.08-5.73,6.52-8.01.9-16.02,1.75-24.04,2.57-3.5.36-4.88-.94-4.88-4.42,0-11.96,0-23.93,0-35.89Z"/>
  <path class="cls-2" d="M121.11,15.41c.85-1.91,2.47-2.74,4.42-2.96,8.46-.95,16.93-1.86,25.4-2.76,1.99-.21,3.54.93,3.97,2.89.15.67.2,1.38.2,2.08,0,23.57,0,47.14,0,70.71,0,3.84-1.31,5.19-5.08,4.81-8.3-.83-16.59-1.79-24.88-2.73-2.39-.27-3.9-1.67-4.57-3.98.4-.65.2-1.37.21-2.05.21-22-.4-44,.32-66Z"/>
  <path class="cls-3" d="M121.11,15.41c-.72,22-.11,44-.32,66,0,.68.2,1.4-.21,2.05-.31-.85-.19-1.73-.19-2.6,0-20.71,0-41.42,0-62.13,0-1.15-.18-2.35.72-3.32Z"/>
</svg>